<svg width="1440" height="90" viewBox="0 0 1440 90" fill="none" xmlns="http://www.w3.org/2000/svg">
  <!-- AC footer tree type — monochrome seafoam green, stencil/flat style -->
  <!-- Color: #7aae92 (seafoam/sage green matching AC design system) -->

  <!-- Pine tree 1 (partial, left edge) -->
  <g transform="translate(-10, 22)" fill="#7aae92">
    <rect x="27" y="38" width="5" height="16" rx="1"/>
    <polygon points="29,2 15,24 43,24"/>
    <polygon points="29,-10 12,16 46,16"/>
    <polygon points="29,-20 9,8 49,8"/>
  </g>

  <!-- Palm tree 1 -->
  <g transform="translate(60, 28)" fill="#7aae92">
    <rect x="8" y="26" width="4" height="22" rx="1"/>
    <path d="M10,24 Q-10,16 -22,4 Q-15,8 -8,14 Q-16,2 -12,-6 Q-8,4 -2,14 Q-6,-2 0,-8 Q2,6 8,14 Q10,0 16,-6 Q12,4 12,14 Q18,2 24,0 Q18,10 14,18 Q22,14 28,14 Q20,20 14,24 Q18,28 22,30 Q14,28 10,26"/>
  </g>

  <!-- Palm tree 2 -->
  <g transform="translate(120, 28)" fill="#7aae92">
    <rect x="8" y="26" width="4" height="22" rx="1"/>
    <path d="M10,24 Q-10,16 -22,4 Q-15,8 -8,14 Q-16,2 -12,-6 Q-8,4 -2,14 Q-6,-2 0,-8 Q2,6 8,14 Q10,0 16,-6 Q12,4 12,14 Q18,2 24,0 Q18,10 14,18 Q22,14 28,14 Q20,20 14,24 Q18,28 22,30 Q14,28 10,26"/>
  </g>

  <!-- Palm tree 3 -->
  <g transform="translate(180, 28)" fill="#7aae92">
    <rect x="8" y="26" width="4" height="22" rx="1"/>
    <path d="M10,24 Q-10,16 -22,4 Q-15,8 -8,14 Q-16,2 -12,-6 Q-8,4 -2,14 Q-6,-2 0,-8 Q2,6 8,14 Q10,0 16,-6 Q12,4 12,14 Q18,2 24,0 Q18,10 14,18 Q22,14 28,14 Q20,20 14,24 Q18,28 22,30 Q14,28 10,26"/>
  </g>

  <!-- Lighthouse -->
  <g transform="translate(260, 8)" fill="#7aae92">
    <!-- Base -->
    <path d="M8,64 L32,64 L30,62 L10,62 Z"/>
    <!-- Body -->
    <rect x="12" y="18" width="16" height="44" rx="1"/>
    <!-- Balcony line -->
    <rect x="6" y="28" width="28" height="3" rx="1"/>
    <!-- Window 1 -->
    <rect x="15" y="34" width="10" height="10" rx="1" fill="#fff"/>
    <!-- Window 2 -->
    <rect x="15" y="20" width="10" height="5" rx="1" fill="#fff"/>
    <!-- Roof -->
    <polygon points="20,0 2,18 38,18"/>
    <!-- Orb -->
    <circle cx="20" cy="-3" r="3"/>
  </g>

  <!-- Palm tree 4 -->
  <g transform="translate(370, 28)" fill="#7aae92">
    <rect x="8" y="26" width="4" height="22" rx="1"/>
    <path d="M10,24 Q-10,16 -22,4 Q-15,8 -8,14 Q-16,2 -12,-6 Q-8,4 -2,14 Q-6,-2 0,-8 Q2,6 8,14 Q10,0 16,-6 Q12,4 12,14 Q18,2 24,0 Q18,10 14,18 Q22,14 28,14 Q20,20 14,24 Q18,28 22,30 Q14,28 10,26"/>
  </g>

  <!-- Pine tree 2 -->
  <g transform="translate(450, 22)" fill="#7aae92">
    <rect x="27" y="38" width="5" height="16" rx="1"/>
    <polygon points="29,2 15,24 43,24"/>
    <polygon points="29,-10 12,16 46,16"/>
    <polygon points="29,-20 9,8 49,8"/>
  </g>

  <!-- Pine tree 3 -->
  <g transform="translate(500, 24)" fill="#7aae92">
    <rect x="25" y="36" width="4" height="14" rx="1"/>
    <polygon points="27,4 14,24 40,24"/>
    <polygon points="27,-8 11,16 43,16"/>
    <polygon points="27,-18 9,8 45,8"/>
  </g>

  <!-- Campsite Tent -->
  <g transform="translate(580, 22)" fill="#7aae92">
    <polygon points="32,0 0,46 64,46"/>
    <!-- Doorway cutout (white) -->
    <polygon points="32,46 22,24 42,24" fill="#fff"/>
  </g>

  <!-- Deciduous tree -->
  <g transform="translate(680, 26)" fill="#7aae92">
    <rect x="9" y="28" width="5" height="18" rx="1.5"/>
    <!-- Cloud-like foliage -->
    <circle cx="11" cy="12" r="16"/>
    <circle cx="-2" cy="14" r="12"/>
    <circle cx="24" cy="14" r="12"/>
    <circle cx="11" cy="6" r="13"/>
  </g>

  <!-- Pine tree 4 -->
  <g transform="translate(760, 22)" fill="#7aae92">
    <rect x="27" y="38" width="5" height="16" rx="1"/>
    <polygon points="29,2 15,24 43,24"/>
    <polygon points="29,-10 12,16 46,16"/>
    <polygon points="29,-20 9,8 49,8"/>
  </g>

  <!-- Pine tree 5 -->
  <g transform="translate(820, 26)" fill="#7aae92">
    <rect x="25" y="34" width="4" height="14" rx="1"/>
    <polygon points="27,4 14,24 40,24"/>
    <polygon points="27,-8 11,16 43,16"/>
    <polygon points="27,-18 9,8 45,8"/>
  </g>

  <!-- Deciduous tree 2 (small) -->
  <g transform="translate(900, 30)" fill="#7aae92">
    <rect x="8" y="24" width="4" height="14" rx="1"/>
    <circle cx="10" cy="12" r="14"/>
    <circle cx="-1" cy="14" r="10"/>
    <circle cx="21" cy="14" r="10"/>
  </g>

  <!-- Palm tree 5 -->
  <g transform="translate(970, 32)" fill="#7aae92">
    <rect x="8" y="22" width="4" height="20" rx="1"/>
    <path d="M10,20 Q-10,12 -22,0 Q-15,4 -8,10 Q-16,-2 -12,-10 Q-8,0 -2,10 Q-6,-4 0,-10 Q2,4 8,10 Q10,-2 16,-10 Q12,2 12,10 Q18,0 24,-4 Q18,8 14,14 Q22,10 28,10 Q20,16 14,20 Q18,24 22,26 Q14,24 10,22"/>
  </g>

  <!-- Pine tree 6 (partial, right edge) -->
  <g transform="translate(1030, 22)" fill="#7aae92">
    <rect x="27" y="38" width="5" height="16" rx="1"/>
    <polygon points="29,2 15,24 43,24"/>
    <polygon points="29,-10 12,16 46,16"/>
    <polygon points="29,-20 9,8 49,8"/>
  </g>

  <!-- Ground: small grass tufts (triangles) -->
  <g fill="#7aae92" opacity="0.5">
    <polygon points="20,72 18,68 22,68"/>
    <polygon points="50,74 48,70 52,70"/>
    <polygon points="90,70 88,66 92,66"/>
    <polygon points="140,73 138,69 142,69"/>
    <polygon points="200,71 198,67 202,67"/>
    <polygon points="250,74 248,70 252,70"/>
    <polygon points="310,72 308,68 312,68"/>
    <polygon points="360,70 358,66 362,66"/>
    <polygon points="420,74 418,70 422,70"/>
    <polygon points="470,71 468,67 472,67"/>
    <polygon points="530,73 528,69 532,69"/>
    <polygon points="590,70 588,66 592,66"/>
    <polygon points="640,74 638,70 642,70"/>
    <polygon points="690,71 688,67 692,67"/>
    <polygon points="740,73 738,69 742,69"/>
    <polygon points="790,70 788,66 792,66"/>
    <polygon points="840,74 838,70 842,70"/>
    <polygon points="900,72 898,68 902,68"/>
    <polygon points="960,74 958,70 962,70"/>
    <polygon points="1020,71 1018,67 1022,67"/>
    <polygon points="1080,73 1078,69 1082,69"/>
    <polygon points="1140,70 1138,66 1142,66"/>
    <polygon points="1200,74 1198,70 1202,70"/>
    <polygon points="1260,72 1258,68 1262,68"/>
    <polygon points="1320,73 1318,69 1322,69"/>
    <polygon points="1380,71 1378,67 1382,67"/>
  </g>
</svg>
