<svg width="1440" height="80" viewBox="0 0 1440 80" fill="none" xmlns="http://www.w3.org/2000/svg">
  <!-- Tree-type AC banner — compact -->

  <!-- Ground base -->
  <path d="M0 78 L1440 78 L1440 80 L0 80 Z" fill="#8faa85" opacity="0.25"/>

  <!-- Conifer tree 1 -->
  <g transform="translate(70, 25)">
    <rect x="3" y="38" width="5" height="14" rx="1" fill="#6b8c63"/>
    <polygon points="5,2 -7,18 17,18" fill="#94b889"/>
    <polygon points="5,-10 -9,12 19,12" fill="#a3cc96"/>
  </g>

  <!-- Conifer tree 2 -->
  <g transform="translate(145, 20)">
    <rect x="3" y="42" width="5" height="14" rx="1" fill="#6b8c63"/>
    <polygon points="5,-2 -8,18 18,18" fill="#94b889"/>
    <polygon points="5,-14 -10,10 20,10" fill="#a3cc96"/>
  </g>

  <!-- Deciduous tree -->
  <g transform="translate(250, 22)">
    <rect x="4" y="35" width="6" height="14" rx="1.5" fill="#6b8c63"/>
    <circle cx="7" cy="18" r="18" fill="#a3cc96"/>
    <circle cx="7" cy="18" r="14" fill="#b5d9a8"/>
  </g>

  <!-- Tent -->
  <g transform="translate(360, 30)">
    <polygon points="20,0 0,44 40,44" fill="#c4b998"/>
    <polygon points="20,0 40,44 44,44 44,48 40,48" fill="#d4c9a8"/>
    <circle cx="11" cy="18" r="2.5" fill="#8f7d60"/>
    <circle cx="29" cy="18" r="2.5" fill="#8f7d60"/>
  </g>

  <!-- Lighthouse -->
  <g transform="translate(480, 12)">
    <rect x="7" y="18" width="12" height="42" rx="2" fill="#e8ddd0"/>
    <rect x="5" y="22" width="16" height="4" fill="#c44a40"/>
    <rect x="5" y="32" width="16" height="4" fill="#c44a40"/>
    <rect x="5" y="42" width="16" height="4" fill="#c44a40"/>
    <rect x="9" y="8" width="8" height="10" rx="1" fill="#3d4a38"/>
    <polygon points="13,0 -3,9 29,9" fill="#c44a40"/>
  </g>

  <!-- Palm tree -->
  <g transform="translate(610, 22)">
    <rect x="6" y="30" width="4" height="24" rx="1" fill="#8b7355"/>
    <path d="M8,28 Q-12,20 -20,6 Q-17,8 -10,14 Q-16,4 -13,-2 Q-10,6 -5,14 Q-9,-1 -3,-6 Q0,5 4,14 Q8,-1 12,-6 Q9,3 10,12 Q16,-1 20,-2 Q17,8 14,16 Q22,10 25,10 Q20,16 16,22" fill="#94b889"/>
  </g>

  <!-- Conifer tree 3 (small) -->
  <g transform="translate(730, 32)">
    <rect x="2" y="30" width="4" height="12" rx="1" fill="#6b8c63"/>
    <polygon points="4,2 -6,16 14,16" fill="#94b889"/>
    <polygon points="4,-8 -7,10 15,10" fill="#a3cc96"/>
  </g>

  <!-- Deciduous tree 2 -->
  <g transform="translate(840, 26)">
    <rect x="3" y="32" width="5" height="14" rx="1.5" fill="#6b8c63"/>
    <circle cx="5.5" cy="16" r="16" fill="#a3cc96"/>
    <circle cx="5.5" cy="16" r="12" fill="#b5d9a8"/>
  </g>

  <!-- Conifer tree 4 -->
  <g transform="translate(940, 22)">
    <rect x="3" y="40" width="5" height="14" rx="1" fill="#6b8c63"/>
    <polygon points="5,0 -7,18 17,18" fill="#94b889"/>
    <polygon points="5,-12 -9,10 19,10" fill="#a3cc96"/>
  </g>

  <!-- Small bush -->
  <g transform="translate(1060, 48)">
    <ellipse cx="10" cy="8" rx="12" ry="8" fill="#94b889"/>
    <ellipse cx="10" cy="8" rx="8" ry="5" fill="#a3cc96"/>
  </g>

  <!-- Deciduous tree 3 (small) -->
  <g transform="translate(1170, 32)">
    <rect x="3" y="26" width="4" height="12" rx="1" fill="#6b8c63"/>
    <circle cx="5" cy="14" r="14" fill="#a3cc96"/>
    <circle cx="5" cy="14" r="10" fill="#b5d9a8"/>
  </g>

  <!-- Conifer tree 5 -->
  <g transform="translate(1270, 28)">
    <rect x="2" y="34" width="4" height="14" rx="1" fill="#6b8c63"/>
    <polygon points="4,0 -6,16 14,16" fill="#94b889"/>
    <polygon points="4,-10 -7,10 15,10" fill="#a3cc96"/>
  </g>

  <!-- Small bush 2 -->
  <g transform="translate(1350, 50)">
    <ellipse cx="8" cy="6" rx="10" ry="7" fill="#94b889"/>
    <ellipse cx="8" cy="6" rx="7" ry="4" fill="#a3cc96"/>
  </g>

  <!-- Falling leaves — subtle -->
  <circle cx="100" cy="62" r="2" fill="#a3cc96" opacity="0.4"/>
  <circle cx="310" cy="58" r="1.5" fill="#b5d9a8" opacity="0.35"/>
  <circle cx="560" cy="65" r="2" fill="#94b889" opacity="0.3"/>
  <circle cx="770" cy="60" r="1.5" fill="#a3cc96" opacity="0.4"/>
  <circle cx="980" cy="64" r="2" fill="#b5d9a8" opacity="0.35"/>
  <circle cx="1220" cy="58" r="1.5" fill="#94b889" opacity="0.3"/>
  <circle cx="1400" cy="62" r="1.5" fill="#a3cc96" opacity="0.35"/>
</svg>
